<svg width="52" height="52" viewBox="0 0 52 52" fill="none" xmlns="http://www.w3.org/2000/svg">
<rect width="52" height="52" rx="26" fill="#2B2B2B"/>
<g clip-path="url(#clip0_1_60)">
<path d="M26.0071 17.7072C21.4207 17.7072 17.7214 21.4065 17.7214 25.9928C17.7214 30.5792 21.4207 34.2785 26.0071 34.2785C30.5934 34.2785 34.2927 30.5792 34.2927 25.9928C34.2927 21.4065 30.5934 17.7072 26.0071 17.7072ZM26.0071 31.3796C23.0433 31.3796 20.6203 28.9639 20.6203 25.9928C20.6203 23.0218 23.0361 20.6061 26.0071 20.6061C28.9781 20.6061 31.3938 23.0218 31.3938 25.9928C31.3938 28.9639 28.9709 31.3796 26.0071 31.3796ZM36.5643 17.3683C36.5643 18.4427 35.6989 19.3009 34.6317 19.3009C33.5572 19.3009 32.6991 18.4355 32.6991 17.3683C32.6991 16.301 33.5644 15.4357 34.6317 15.4357C35.6989 15.4357 36.5643 16.301 36.5643 17.3683ZM42.052 19.3297C41.9294 16.7409 41.3381 14.4477 39.4415 12.5584C37.5522 10.6691 35.259 10.0777 32.6702 9.94793C30.0021 9.7965 22.0049 9.7965 19.3367 9.94793C16.7551 10.0705 14.4619 10.6618 12.5654 12.5512C10.6689 14.4405 10.0847 16.7337 9.95495 19.3225C9.80351 21.9906 9.80351 29.9878 9.95495 32.656C10.0775 35.2448 10.6689 37.538 12.5654 39.4273C14.4619 41.3166 16.7479 41.9079 19.3367 42.0378C22.0049 42.1892 30.0021 42.1892 32.6702 42.0378C35.259 41.9152 37.5522 41.3238 39.4415 39.4273C41.3309 37.538 41.9222 35.2448 42.052 32.656C42.2034 29.9878 42.2034 21.9978 42.052 19.3297ZM38.605 35.5188C38.0426 36.9322 36.9537 38.0211 35.5331 38.5908C33.4058 39.4345 28.3579 39.2398 26.0071 39.2398C23.6562 39.2398 18.6012 39.4273 16.4811 38.5908C15.0677 38.0283 13.9788 36.9394 13.4091 35.5188C12.5654 33.3915 12.7601 28.3437 12.7601 25.9928C12.7601 23.642 12.5726 18.5869 13.4091 16.4669C13.9716 15.0535 15.0605 13.9646 16.4811 13.3949C18.6084 12.5512 23.6562 12.7459 26.0071 12.7459C28.3579 12.7459 33.413 12.5584 35.5331 13.3949C36.9465 13.9574 38.0353 15.0462 38.605 16.4669C39.4487 18.5942 39.254 23.642 39.254 25.9928C39.254 28.3437 39.4487 33.3987 38.605 35.5188Z" fill="#6B6B6B"/>
</g>
<defs>
<clipPath id="clip0_1_60">
<rect width="32.3062" height="36.9213" fill="white" transform="translate(9.84692 7.53934)"/>
</clipPath>
</defs>
</svg>
