<svg width="52" height="52" viewBox="0 0 52 52" fill="none" xmlns="http://www.w3.org/2000/svg">
<rect width="52" height="52" rx="26" fill="#2B2B2B"/>
<g clip-path="url(#clip0_1_58)">
<path d="M38.7106 19.4822C38.7309 19.7664 38.7309 20.0507 38.7309 20.335C38.7309 29.005 32.132 38.9949 20.0711 38.9949C16.3553 38.9949 12.9036 37.9187 10 36.0507C10.5279 36.1116 11.0355 36.1319 11.5838 36.1319C14.6497 36.1319 17.4721 35.0964 19.7259 33.3299C16.8426 33.269 14.4264 31.3807 13.5939 28.7817C14 28.8426 14.4061 28.8832 14.8325 28.8832C15.4213 28.8832 16.0102 28.8019 16.5584 28.6599C13.5533 28.0507 11.2994 25.4111 11.2994 22.2233V22.1421C12.1725 22.6294 13.1878 22.934 14.2639 22.9746C12.4974 21.7969 11.3401 19.7867 11.3401 17.5126C11.3401 16.2944 11.6649 15.1776 12.2334 14.203C15.4619 18.1827 20.3147 20.7816 25.7563 21.0659C25.6548 20.5786 25.5938 20.0711 25.5938 19.5634C25.5938 15.9492 28.5177 13.0051 32.1522 13.0051C34.0405 13.0051 35.7461 13.7969 36.9441 15.0761C38.4263 14.7919 39.8476 14.2436 41.1065 13.4924C40.6191 15.0152 39.5836 16.2944 38.2233 17.1066C39.5431 16.9645 40.8223 16.5989 41.9999 16.0914C41.1066 17.3908 39.9898 18.5481 38.7106 19.4822Z" fill="#6B6B6B"/>
</g>
<defs>
<clipPath id="clip0_1_58">
<rect width="32" height="32" fill="white" transform="translate(10 10)"/>
</clipPath>
</defs>
</svg>
